<svg xmlns="http://www.w3.org/2000/svg" xmlns:xlink="http://www.w3.org/1999/xlink" width="500" zoomAndPan="magnify" viewBox="0 0 375 374.999991" height="500" preserveAspectRatio="xMidYMid meet" version="1.0"><path fill="#16865f" d="M 102.769531 24.605469 C 100.101562 15.339844 86.167969 0 85.648438 0 C 85.128906 0 71.195312 15.339844 68.527344 24.605469 C 66.082031 32.980469 67.9375 42.019531 72.902344 49.285156 C 76.753906 54.914062 81.5 59.957031 85.648438 65.367188 C 89.800781 59.957031 94.542969 54.914062 98.394531 49.285156 C 103.359375 42.019531 105.214844 32.980469 102.769531 24.605469 Z M 102.769531 24.605469 " fill-opacity="1" fill-rule="nonzero"/><path fill="#16865f" d="M 305.980469 24.605469 C 303.3125 15.339844 289.378906 0 288.859375 0 C 288.339844 0 274.410156 15.339844 271.742188 24.605469 C 269.296875 32.980469 271.148438 42.019531 276.113281 49.285156 C 279.96875 54.914062 284.710938 59.957031 288.859375 65.367188 C 293.011719 59.957031 297.753906 54.914062 301.605469 49.285156 C 306.574219 42.019531 308.425781 32.980469 305.980469 24.605469 Z M 305.980469 24.605469 " fill-opacity="1" fill-rule="nonzero"/><path fill="#16865f" d="M 40.441406 51.136719 C 52.964844 57.4375 67.640625 63.140625 74.382812 76.261719 C 79.941406 86.414062 78.089844 98.34375 78.164062 109.460938 C 66.230469 102.421875 51.632812 97.308594 44.664062 84.410156 C 39.03125 74.257812 40.515625 62.253906 40.441406 51.136719 Z M 40.441406 51.136719 " fill-opacity="1" fill-rule="nonzero"/><path fill="#16865f" d="M 40.515625 100.421875 C 52.003906 106.273438 65.046875 111.386719 72.605469 122.429688 C 80.015625 133.027344 78.238281 146.589844 78.164062 158.746094 C 66.304688 151.777344 51.78125 146.589844 44.738281 133.84375 C 38.664062 123.765625 40.738281 111.609375 40.515625 100.421875 Z M 40.515625 100.421875 " fill-opacity="1" fill-rule="nonzero"/><path fill="#16865f" d="M 244.320312 51.285156 C 255.511719 57.65625 268.851562 62.402344 276.039062 73.886719 C 283.226562 84.410156 280.855469 97.824219 281.152344 109.832031 C 269.589844 102.644531 255.363281 97.679688 248.617188 85.003906 C 242.246094 74.925781 244.617188 62.476562 244.320312 51.285156 Z M 244.320312 51.285156 " fill-opacity="1" fill-rule="nonzero"/><path fill="#16865f" d="M 302.570312 71.8125 C 310.425781 61.957031 322.210938 56.621094 333.179688 51.136719 C 332.957031 63.585938 335.550781 77.667969 327.101562 88.191406 C 319.246094 98.121094 307.015625 102.792969 296.640625 109.386719 C 296.863281 96.863281 294.121094 82.484375 302.570312 71.8125 Z M 302.570312 71.8125 " fill-opacity="1" fill-rule="nonzero"/><path fill="#16865f" d="M 96.839844 76.1875 C 103.582031 63.660156 117.515625 58.398438 129.003906 51.433594 C 129.078125 61.585938 130.929688 72.257812 127.300781 81.964844 C 120.925781 95.972656 106.101562 102.570312 93.207031 109.386719 C 93.429688 98.269531 91.207031 86.339844 96.839844 76.1875 Z M 96.839844 76.1875 " fill-opacity="1" fill-rule="nonzero"/><path fill="#16865f" d="M 97.582031 123.988281 C 104.398438 112.277344 118.035156 107.757812 128.929688 100.789062 C 129.894531 111.683594 132.117188 123.542969 126.335938 133.621094 C 119.8125 146.8125 104.917969 151.703125 93.132812 158.894531 C 93.429688 147.257812 91.132812 134.4375 97.582031 123.988281 Z M 97.582031 123.988281 " fill-opacity="1" fill-rule="nonzero"/><path fill="#16865f" d="M 298.421875 128.285156 C 304.421875 113.761719 319.988281 107.238281 333.03125 100.640625 C 332.882812 111.832031 335.328125 124.136719 329.101562 134.214844 C 322.582031 147.035156 307.757812 151.113281 296.714844 158.894531 C 296.789062 148.738281 295.234375 138.140625 298.421875 128.285156 Z M 298.421875 128.285156 " fill-opacity="1" fill-rule="nonzero"/><path fill="#16865f" d="M 244.394531 100.640625 C 255.734375 106.792969 268.554688 112.054688 276.113281 123.171875 C 283.449219 133.695312 280.855469 147.109375 280.929688 159.117188 C 270.183594 152 256.84375 147.480469 249.285156 136.511719 C 242.246094 125.914062 244.617188 112.648438 244.394531 100.640625 Z M 244.394531 100.640625 " fill-opacity="1" fill-rule="nonzero"/><path fill="#16865f" d="M 244.394531 149.40625 C 255.140625 156.078125 267.664062 161.042969 275.519531 171.492188 C 283.449219 182.386719 280.929688 196.542969 281.078125 209.140625 C 270.035156 202.394531 256.769531 197.726562 249.359375 186.535156 C 241.875 175.566406 244.691406 161.785156 244.394531 149.40625 Z M 244.394531 149.40625 " fill-opacity="1" fill-rule="nonzero"/><path fill="#16865f" d="M 40.515625 150.296875 C 51.78125 155.1875 63.859375 160.300781 71.640625 170.230469 C 80.089844 181.273438 78.3125 195.875 78.386719 208.917969 C 66.230469 202.175781 51.855469 196.691406 44.738281 183.941406 C 38.886719 173.640625 40.589844 161.5625 40.515625 150.296875 Z M 40.515625 150.296875 " fill-opacity="1" fill-rule="nonzero"/><path fill="#16865f" d="M 98.46875 171.789062 C 105.957031 161.339844 118.332031 156.523438 129.078125 150.222656 C 128.929688 160.597656 130.707031 171.34375 127.519531 181.421875 C 121.59375 195.949219 105.882812 201.953125 92.984375 208.917969 C 93.578125 196.542969 90.761719 182.460938 98.46875 171.789062 Z M 98.46875 171.789062 " fill-opacity="1" fill-rule="nonzero"/><path fill="#16865f" d="M 300.941406 172.824219 C 307.757812 160.671875 322.136719 156.671875 333.03125 149.183594 C 332.882812 162.078125 335.625 176.753906 327.175781 187.796875 C 319.46875 197.800781 307.164062 202.320312 296.789062 208.84375 C 297.011719 196.839844 294.046875 183.496094 300.941406 172.824219 Z M 300.941406 172.824219 " fill-opacity="1" fill-rule="nonzero"/><path fill="#16865f" d="M 40.664062 201.65625 C 53.113281 209.066406 65.859375 215.882812 78.164062 223.664062 C 78.386719 249.53125 87.574219 275.320312 104.695312 294.886719 C 125.148438 318.675781 156.351562 334.164062 188.070312 332.832031 C 230.609375 333.71875 271.148438 305.410156 287.378906 266.429688 C 293.898438 252.644531 294.566406 237.300781 297.085938 222.480469 C 309.316406 216.179688 320.800781 208.472656 333.253906 202.542969 C 333.253906 212.992188 333.476562 223.445312 333.179688 233.894531 C 330.214844 278.804688 305.164062 321.789062 267.292969 346.320312 C 236.390625 367.070312 197.257812 375 160.722656 368.035156 C 112.253906 359.660156 69.9375 324.457031 51.707031 278.953125 C 41.257812 254.644531 39.625 227.816406 40.664062 201.65625 Z M 40.664062 201.65625 " fill-opacity="1" fill-rule="nonzero"/><path fill="#16865f" d="M 92.910156 223.371094 C 105.734375 217.144531 116.996094 207.878906 130.558594 203.359375 C 128.261719 221.960938 129.894531 242.636719 141.824219 257.90625 C 155.3125 275.839844 180.289062 286.289062 202.152344 278.878906 C 220.234375 273.914062 234.90625 259.386719 240.984375 241.824219 C 245.652344 229.222656 244.023438 215.660156 244.246094 202.542969 C 256.472656 209.4375 269.148438 215.734375 280.558594 223.886719 C 282.5625 265.910156 250.765625 305.632812 210.230469 315.414062 C 167.613281 327.792969 118.851562 303.410156 101.507812 262.945312 C 95.726562 250.566406 93.429688 236.933594 92.910156 223.371094 Z M 92.910156 223.371094 " fill-opacity="1" fill-rule="nonzero"/></svg>